<svg width="148" height="66" viewBox="0 0 148 66" fill="none" xmlns="http://www.w3.org/2000/svg">
<rect opacity="0.3" width="148" height="66" rx="33" fill="#0C111D"/>
<g filter="url(#filter0_d_10316_58779)">
<path d="M48.8305 16.013H43.5433V48.7839H48.8305V16.013Z" fill="white"/>
<path d="M57.0987 27.7729H51.8115V48.7835H57.0987V27.7729Z" fill="white"/>
<path d="M73.5495 31.4837L69.6034 27.5067L65.6573 31.4837L69.6034 35.4607L73.5495 31.4837Z" fill="white"/>
<path d="M58.4254 19.7602L54.4793 15.7832L50.5332 19.7602L54.4793 23.7372L58.4254 19.7602Z" fill="white"/>
<path d="M40.5557 16.0118H35.2685V19.185C33.9942 18.5456 32.5588 18.1832 31.0387 18.1832C25.7911 18.1806 21.5217 22.4834 21.5217 27.7721C21.5217 30.082 22.336 32.2055 23.6921 33.8626H21.5217V39.1912H26.8089V36.3618C28.0832 37.0012 29.5186 37.3635 31.0387 37.3635C36.2863 37.3635 40.5557 33.0607 40.5557 27.7721C40.5557 25.2996 39.6225 23.0429 38.0918 21.3404H40.5557V16.0118ZM31.0387 32.0349C28.707 32.0349 26.8089 30.122 26.8089 27.7721C26.8089 25.4221 28.707 23.5092 31.0387 23.5092C33.3704 23.5092 35.2685 25.4221 35.2685 27.7721C35.2685 30.122 33.3704 32.0349 31.0387 32.0349Z" fill="white"/>
<path d="M31.0381 39.1911H26.8083V44.5197H31.0381C33.3697 44.5197 35.2678 46.4327 35.2678 48.7826H40.555C40.555 43.494 36.2856 39.1911 31.0381 39.1911Z" fill="white"/>
<path d="M69.6041 21.3416C71.1294 21.3416 72.6072 22.1702 73.3871 23.6968L73.5959 23.4863L77.2097 19.8443C75.4253 17.4544 72.6125 16.013 69.6041 16.013C64.4438 16.013 60.2351 20.172 60.095 25.338L60.0871 48.7839H65.3743V25.6018C65.3743 23.2519 67.2724 21.3389 69.6041 21.3389V21.3416Z" fill="white"/>
<path d="M73.5495 31.4837L69.6034 27.5067L65.6573 31.4837L69.6034 35.4607L73.5495 31.4837Z" fill="white"/>
<path d="M120.022 48.8259H117.218V27.6354H120.022V30.2219C121.02 28.321 122.702 27.2615 125.102 27.2615C129.371 27.2615 131.397 30.9698 131.397 35.5819C131.397 40.1939 129.371 43.9022 125.102 43.9022C122.702 43.9022 121.02 42.8427 120.022 40.9418V48.8259ZM120.022 34.2419V36.9218C120.022 39.6641 121.581 41.6585 124.385 41.6585C126.722 41.6585 128.436 40.1939 128.436 38.0437V33.12C128.436 30.9698 126.722 29.5052 124.385 29.5052C121.581 29.5052 120.022 31.4996 120.022 34.2419Z" fill="white"/>
<path d="M103.267 48.8259H100.463V27.6354H103.267V30.2219C104.265 28.321 105.947 27.2615 108.347 27.2615C112.616 27.2615 114.642 30.9698 114.642 35.5819C114.642 40.1939 112.616 43.9022 108.347 43.9022C105.947 43.9022 104.265 42.8427 103.267 40.9418V48.8259ZM103.267 34.2419V36.9218C103.267 39.6641 104.826 41.6585 107.63 41.6585C109.967 41.6585 111.681 40.1939 111.681 38.0437V33.12C111.681 30.9698 109.967 29.5052 107.63 29.5052C104.826 29.5052 103.267 31.4996 103.267 34.2419Z" fill="white"/>
<path d="M87.7844 43.9022C86.2262 43.9022 84.8863 43.4036 83.9825 42.4688C83.1723 41.6274 82.6737 40.412 82.6737 39.1655C82.6737 36.6725 84.263 34.6781 87.4104 34.3977L92.5834 33.9302V32.6526C92.5834 30.1907 91.2434 29.5052 89.2802 29.5052C87.3169 29.5052 86.0081 30.3466 86.0081 32.3721H83.2035C83.2035 29.3805 85.9146 27.2615 89.3113 27.2615C92.7392 27.2615 95.3257 28.9442 95.3257 32.6837V41.1288H97.6941V43.5283H92.9574L92.895 40.599H92.7704C91.8978 42.8427 90.1527 43.9022 87.7844 43.9022ZM88.5011 41.6585C91.0253 41.6585 92.5834 39.6641 92.5834 36.7972V36.0805L86.943 36.6102C85.79 36.7037 85.6342 37.2335 85.6342 38.1372V39.5395C85.6342 41.0041 86.7248 41.6585 88.5011 41.6585Z" fill="white"/>
<path d="M80.5278 40.1002V43.5281H77.0999V40.1002H80.5278Z" fill="white"/>
</g>
<defs>
<filter id="filter0_d_10316_58779" x="20.0869" y="14.3484" width="112.745" height="35.9123" filterUnits="userSpaceOnUse" color-interpolation-filters="sRGB">
<feFlood flood-opacity="0" result="BackgroundImageFix"/>
<feColorMatrix in="SourceAlpha" type="matrix" values="0 0 0 0 0 0 0 0 0 0 0 0 0 0 0 0 0 0 127 0" result="hardAlpha"/>
<feOffset/>
<feGaussianBlur stdDeviation="0.717391"/>
<feComposite in2="hardAlpha" operator="out"/>
<feColorMatrix type="matrix" values="0 0 0 0 0 0 0 0 0 0 0 0 0 0 0 0 0 0 0.25 0"/>
<feBlend mode="normal" in2="BackgroundImageFix" result="effect1_dropShadow_10316_58779"/>
<feBlend mode="normal" in="SourceGraphic" in2="effect1_dropShadow_10316_58779" result="shape"/>
</filter>
</defs>
</svg>
