<svg width="90" height="66" viewBox="0 0 90 66" fill="none" xmlns="http://www.w3.org/2000/svg">
<rect opacity="0.3" width="90" height="66" rx="13.8947" fill="white"/>
<g clip-path="url(#clip0_10316_58797)">
<g clip-path="url(#clip1_10316_58797)">
<path d="M44.241 19.9415H38.3045V56.7368H44.241V19.9415Z" fill="#0C111D"/>
<path d="M53.5257 33.1459H47.5892V56.7368H53.5257V33.1459Z" fill="#0C111D"/>
<path d="M71.9968 37.3126L67.5661 32.8472L63.1354 37.3126L67.5661 41.778L71.9968 37.3126Z" fill="#0C111D"/>
<path d="M55.0143 24.149L50.5836 19.6836L46.1529 24.149L50.5836 28.6144L55.0143 24.149Z" fill="#0C111D"/>
<path d="M34.9504 19.9415H29.0139V23.5044C27.5832 22.7864 25.9714 22.3795 24.2647 22.3795C18.3727 22.3766 13.5789 27.2078 13.5789 33.1459C13.5789 35.7396 14.4932 38.1238 16.0159 39.9845H13.5789V45.9675H19.5155V42.7905C20.9462 43.5085 22.5579 43.9153 24.2647 43.9153C30.1567 43.9153 34.9504 39.084 34.9504 33.1459C34.9504 30.3698 33.9026 27.836 32.184 25.9245H34.9504V19.9415ZM24.2647 37.9323C21.6467 37.9323 19.5155 35.7844 19.5155 33.1459C19.5155 30.5074 21.6467 28.3595 24.2647 28.3595C26.8827 28.3595 29.0139 30.5074 29.0139 33.1459C29.0139 35.7844 26.8827 37.9323 24.2647 37.9323Z" fill="#0C111D"/>
<path d="M24.2647 45.9675H19.5155V51.9505H24.2647C26.8827 51.9505 29.0139 54.0983 29.0139 56.7368H34.9504C34.9504 50.7987 30.1567 45.9675 24.2647 45.9675Z" fill="#0C111D"/>
<path d="M67.5656 25.9245C69.2783 25.9245 70.9375 26.8548 71.8132 28.5689L72.0477 28.3326L76.1053 24.2432C74.1017 21.5599 70.9435 19.9415 67.5656 19.9415C61.7716 19.9415 57.0461 24.6112 56.8888 30.4117L56.8799 56.7368H62.8164V30.7079C62.8164 28.0694 64.9476 25.9215 67.5656 25.9215V25.9245Z" fill="#0C111D"/>
</g>
</g>
<path d="M72.7681 12.8449L70.743 9.12685H72.2091L73.2136 11.0709C73.2622 11.1627 73.3027 11.2492 73.3351 11.3302C73.3729 11.4058 73.408 11.4814 73.4404 11.557C73.4674 11.5084 73.4917 11.4598 73.5133 11.4112C73.5349 11.3572 73.5592 11.3032 73.5862 11.2492C73.6132 11.1897 73.6429 11.1276 73.6753 11.0628L74.6798 9.12685H76.1054L74.0803 12.8449V15.1211H72.7681V12.8449Z" fill="#0C111D"/>
<path d="M66.484 9.12685V15.1211H65.1718V9.12685H66.484ZM67.5938 12.6829H66.0628V11.5813H67.529C67.7666 11.5813 67.9475 11.5246 68.0717 11.4112C68.1959 11.2978 68.258 11.133 68.258 10.917C68.258 10.7064 68.1959 10.5471 68.0717 10.4391C67.9475 10.3311 67.7666 10.2771 67.529 10.2771H66.1519V9.12685H67.6667C68.2715 9.12685 68.744 9.27536 69.0843 9.57237C69.4299 9.86939 69.6027 10.2744 69.6027 10.7874C69.6027 11.1384 69.5163 11.4355 69.3435 11.6785C69.1707 11.9215 68.9195 12.0943 68.5901 12.1969V12.0835C68.9411 12.1591 69.2085 12.3157 69.3921 12.5533C69.5811 12.7909 69.6756 13.096 69.6756 13.4687C69.6756 13.8197 69.5973 14.1194 69.4407 14.3678C69.2895 14.6162 69.0626 14.8052 68.7602 14.9348C68.4632 15.059 68.0987 15.1211 67.6667 15.1211H66.1519V13.9709H67.5938C67.8368 13.9709 68.0204 13.9169 68.1446 13.8089C68.2688 13.6955 68.3309 13.5281 68.3309 13.3066C68.3309 13.1014 68.2661 12.9475 68.1365 12.8449C68.0123 12.7369 67.8314 12.6829 67.5938 12.6829Z" fill="#0C111D"/>
<path d="M57.2709 15.1211H54.9218V9.12685H57.1899C57.7785 9.12685 58.2942 9.25376 58.7371 9.50757C59.1853 9.76138 59.5363 10.1151 59.7901 10.5687C60.0439 11.0223 60.1708 11.5462 60.1708 12.1402C60.1708 12.7234 60.0466 13.2391 59.7982 13.6874C59.5552 14.1356 59.215 14.4866 58.7776 14.7404C58.3455 14.9942 57.8433 15.1211 57.2709 15.1211ZM56.234 9.72628V14.5379L55.6103 13.9061H57.1413C57.4869 13.9061 57.7812 13.8359 58.0242 13.6955C58.2726 13.5551 58.4616 13.3525 58.5912 13.0879C58.7209 12.8233 58.7857 12.5074 58.7857 12.1402C58.7857 11.7622 58.7155 11.4409 58.575 11.1762C58.44 10.9062 58.2429 10.701 57.9837 10.5606C57.7299 10.4148 57.4221 10.3419 57.0603 10.3419H55.6103L56.234 9.72628Z" fill="#0C111D"/>
<path d="M52.8759 15.1211H49.0688V9.12685H52.8759V10.3419H50.0165L50.381 10.0017V11.5165H52.5924V12.6667H50.381V14.2463L50.0165 13.9061H52.8759V15.1211Z" fill="#0C111D"/>
<path d="M43.8322 15.1211H42.52V9.12685H44.8367C45.5657 9.12685 46.1274 9.29696 46.5216 9.63718C46.9212 9.97199 47.121 10.4499 47.121 11.0709C47.121 11.4598 47.0373 11.7919 46.8699 12.0673C46.7079 12.3427 46.4595 12.5668 46.1247 12.7396L47.1777 15.1211H45.7439L44.8448 13.0231H43.8322V15.1211ZM43.8322 10.2933V11.8729H44.8286C45.1148 11.8729 45.3362 11.8027 45.4928 11.6623C45.6548 11.5219 45.7358 11.3248 45.7358 11.0709C45.7358 10.8171 45.6575 10.6254 45.5009 10.4958C45.3497 10.3608 45.1283 10.2933 44.8367 10.2933H43.8322Z" fill="#0C111D"/>
<path d="M40.4741 15.1211H36.667V9.12685H40.4741V10.3419H37.6147L37.9792 10.0017V11.5165H40.1906V12.6667H37.9792V14.2463L37.6147 13.9061H40.4741V15.1211Z" fill="#0C111D"/>
<path d="M28.3286 15.1211L26.5303 9.12685H27.8993L28.685 11.7271C28.739 11.9053 28.7903 12.0943 28.8389 12.2941C28.8875 12.4885 28.9361 12.7342 28.9847 13.0312C29.0333 12.7342 29.0819 12.4885 29.1305 12.2941C29.1791 12.0997 29.2304 11.9107 29.2844 11.7271L30.0215 9.12685H31.4877L32.1924 11.7271C32.2411 11.9107 32.2897 12.1024 32.3383 12.3022C32.3869 12.502 32.4382 12.745 32.4922 13.0312C32.5516 12.7288 32.6056 12.4831 32.6542 12.2941C32.7028 12.0997 32.7541 11.9161 32.8081 11.7433L33.61 9.12685H34.9466L33.1159 15.1211H31.836L30.7425 11.1843L29.6165 15.1211H28.3286Z" fill="#0C111D"/>
<path d="M25.3916 12.1155C25.3916 12.7257 25.2674 13.2658 25.019 13.7356C24.7706 14.2 24.425 14.5645 23.9822 14.8291C23.5394 15.0884 23.0263 15.218 22.4431 15.218C21.8653 15.218 21.355 15.0884 20.9121 14.8291C20.4747 14.5645 20.1318 14.2 19.8834 13.7356C19.6404 13.2712 19.5189 12.7338 19.5189 12.1236C19.5189 11.5134 19.6431 10.9761 19.8915 10.5116C20.1399 10.0418 20.4828 9.6773 20.9202 9.41809C21.3631 9.15348 21.8734 9.02117 22.4512 9.02117C23.0344 9.02117 23.5448 9.15348 23.9822 9.41809C24.425 9.6773 24.7706 10.0391 25.019 10.5035C25.2674 10.968 25.3916 11.5053 25.3916 12.1155ZM24.0065 12.1155C24.0065 11.7321 23.9444 11.4054 23.8202 11.1354C23.696 10.86 23.5178 10.6493 23.2855 10.5035C23.0587 10.3577 22.7833 10.2848 22.4593 10.2848C22.1353 10.2848 21.8572 10.3577 21.625 10.5035C21.3928 10.6493 21.2145 10.86 21.0903 11.1354C20.9661 11.4054 20.904 11.7321 20.904 12.1155C20.904 12.4989 20.9661 12.8283 21.0903 13.1038C21.2145 13.3792 21.3928 13.5898 21.625 13.7356C21.8572 13.8814 22.1353 13.9543 22.4593 13.9543C22.7833 13.9543 23.0587 13.8814 23.2855 13.7356C23.5178 13.5844 23.696 13.3711 23.8202 13.0957C23.9444 12.8202 24.0065 12.4935 24.0065 12.1155Z" fill="#0C111D"/>
<path d="M14.8912 9.12685V15.1211H13.5789V9.12685H14.8912ZM16.0091 13.1284H14.5672V11.962H15.7174C16.0361 11.962 16.2737 11.8945 16.4303 11.7595C16.5869 11.6191 16.6652 11.4085 16.6652 11.1276C16.6652 10.8468 16.5869 10.6389 16.4303 10.5039C16.2737 10.3635 16.0361 10.2933 15.7174 10.2933H14.5672V9.12685H16.0091C16.4195 9.12685 16.7759 9.21056 17.0783 9.37797C17.3861 9.54537 17.6237 9.78028 17.7911 10.0827C17.964 10.3797 18.0504 10.728 18.0504 11.1276C18.0504 11.5273 17.964 11.8783 17.7911 12.1807C17.6237 12.4777 17.3861 12.7099 17.0783 12.8773C16.7759 13.0447 16.4195 13.1284 16.0091 13.1284Z" fill="#0C111D"/>
<defs>
<clipPath id="clip0_10316_58797">
<rect width="62.5263" height="37.0526" fill="white" transform="translate(13.5789 19.6842)"/>
</clipPath>
<clipPath id="clip1_10316_58797">
<rect width="62.5263" height="37.0526" fill="white" transform="translate(13.5789 19.6842)"/>
</clipPath>
</defs>
</svg>
