<svg width="148" height="66" viewBox="0 0 148 66" fill="none" xmlns="http://www.w3.org/2000/svg">
<rect opacity="0.3" width="148" height="66" rx="33" fill="white"/>
<g filter="url(#filter0_d_10317_59046)">
<path d="M48.8305 21.013H43.5433V53.7839H48.8305V21.013Z" fill="#0C111D"/>
<path d="M57.0987 32.7729H51.8115V53.7835H57.0987V32.7729Z" fill="#0C111D"/>
<path d="M73.5495 36.4837L69.6034 32.5067L65.6573 36.4837L69.6034 40.4607L73.5495 36.4837Z" fill="#0C111D"/>
<path d="M58.4255 24.7602L54.4793 20.7832L50.5332 24.7602L54.4793 28.7372L58.4255 24.7602Z" fill="#0C111D"/>
<path d="M40.5557 21.0118H35.2685V24.185C33.9942 23.5456 32.5588 23.1832 31.0387 23.1832C25.7911 23.1806 21.5217 27.4834 21.5217 32.7721C21.5217 35.082 22.336 37.2055 23.6921 38.8626H21.5217V44.1912H26.8089V41.3618C28.0832 42.0012 29.5186 42.3635 31.0387 42.3635C36.2863 42.3635 40.5557 38.0607 40.5557 32.7721C40.5557 30.2996 39.6225 28.0429 38.0918 26.3404H40.5557V21.0118ZM31.0387 37.0349C28.707 37.0349 26.8089 35.122 26.8089 32.7721C26.8089 30.4221 28.707 28.5092 31.0387 28.5092C33.3704 28.5092 35.2685 30.4221 35.2685 32.7721C35.2685 35.122 33.3704 37.0349 31.0387 37.0349Z" fill="#0C111D"/>
<path d="M31.0381 44.1911H26.8083V49.5197H31.0381C33.3697 49.5197 35.2678 51.4327 35.2678 53.7826H40.555C40.555 48.494 36.2856 44.1911 31.0381 44.1911Z" fill="#0C111D"/>
<path d="M69.6041 26.3416C71.1294 26.3416 72.6072 27.1702 73.3871 28.6968L73.5959 28.4863L77.2097 24.8443C75.4253 22.4544 72.6125 21.013 69.6041 21.013C64.4438 21.013 60.2351 25.172 60.095 30.338L60.0871 53.7839H65.3743V30.6018C65.3743 28.2519 67.2724 26.3389 69.6041 26.3389V26.3416Z" fill="#0C111D"/>
<path d="M73.5495 36.4837L69.6034 32.5067L65.6573 36.4837L69.6034 40.4607L73.5495 36.4837Z" fill="#0C111D"/>
<path d="M120.022 53.8259H117.218V32.6354H120.022V35.2219C121.02 33.321 122.702 32.2615 125.102 32.2615C129.371 32.2615 131.397 35.9698 131.397 40.5819C131.397 45.1939 129.371 48.9022 125.102 48.9022C122.702 48.9022 121.02 47.8427 120.022 45.9418V53.8259ZM120.022 39.2419V41.9218C120.022 44.6641 121.581 46.6585 124.385 46.6585C126.722 46.6585 128.436 45.1939 128.436 43.0437V38.12C128.436 35.9698 126.722 34.5052 124.385 34.5052C121.581 34.5052 120.022 36.4996 120.022 39.2419Z" fill="#0C111D"/>
<path d="M103.267 53.8259H100.463V32.6354H103.267V35.2219C104.265 33.321 105.947 32.2615 108.347 32.2615C112.616 32.2615 114.642 35.9698 114.642 40.5819C114.642 45.1939 112.616 48.9022 108.347 48.9022C105.947 48.9022 104.265 47.8427 103.267 45.9418V53.8259ZM103.267 39.2419V41.9218C103.267 44.6641 104.826 46.6585 107.63 46.6585C109.967 46.6585 111.681 45.1939 111.681 43.0437V38.12C111.681 35.9698 109.967 34.5052 107.63 34.5052C104.826 34.5052 103.267 36.4996 103.267 39.2419Z" fill="#0C111D"/>
<path d="M87.7844 48.9022C86.2262 48.9022 84.8862 48.4036 83.9825 47.4688C83.1723 46.6274 82.6737 45.412 82.6737 44.1655C82.6737 41.6725 84.263 39.6781 87.4104 39.3977L92.5834 38.9302V37.6526C92.5834 35.1907 91.2434 34.5052 89.2802 34.5052C87.3169 34.5052 86.0081 35.3466 86.0081 37.3721H83.2035C83.2035 34.3805 85.9146 32.2615 89.3113 32.2615C92.7392 32.2615 95.3257 33.9442 95.3257 37.6837V46.1288H97.694V48.5283H92.9573L92.895 45.599H92.7704C91.8978 47.8427 90.1527 48.9022 87.7844 48.9022ZM88.5011 46.6585C91.0253 46.6585 92.5834 44.6641 92.5834 41.7972V41.0805L86.943 41.6102C85.79 41.7037 85.6341 42.2335 85.6341 43.1372V44.5395C85.6341 46.0041 86.7248 46.6585 88.5011 46.6585Z" fill="#0C111D"/>
<path d="M80.5278 45.1003V48.5281H77.0999V45.1003H80.5278Z" fill="#0C111D"/>
</g>
<path d="M101.064 12.3635L99.2831 9.09296H100.573L101.456 10.803C101.499 10.8838 101.535 10.9598 101.563 11.031C101.596 11.0975 101.627 11.1641 101.656 11.2306C101.68 11.1878 101.701 11.1451 101.72 11.1023C101.739 11.0548 101.76 11.0073 101.784 10.9598C101.808 10.9075 101.834 10.8529 101.862 10.7959L102.746 9.09296H104L102.219 12.3635V14.3657H101.064V12.3635Z" fill="#0C111D"/>
<path d="M95.5367 9.09296V14.3657H94.3824V9.09296H95.5367ZM96.5129 12.221H95.1662V11.2519H96.4559C96.6649 11.2519 96.8241 11.2021 96.9333 11.1023C97.0426 11.0025 97.0972 10.8577 97.0972 10.6677C97.0972 10.4824 97.0426 10.3423 96.9333 10.2473C96.8241 10.1523 96.6649 10.1048 96.4559 10.1048H95.2446V9.09296H96.577C97.1091 9.09296 97.5247 9.22359 97.824 9.48485C98.128 9.74612 98.28 10.1024 98.28 10.5537C98.28 10.8624 98.204 11.1237 98.052 11.3374C97.9 11.5512 97.6791 11.7032 97.3893 11.7935V11.6937C97.6981 11.7602 97.9332 11.898 98.0947 12.107C98.261 12.316 98.3441 12.5844 98.3441 12.9121C98.3441 13.2209 98.2752 13.4845 98.1375 13.703C98.0045 13.9215 97.805 14.0878 97.539 14.2018C97.2777 14.3111 96.9571 14.3657 96.577 14.3657H95.2446V13.3539H96.5129C96.7267 13.3539 96.8882 13.3064 96.9974 13.2114C97.1067 13.1116 97.1613 12.9644 97.1613 12.7696C97.1613 12.5891 97.1043 12.4537 96.9903 12.3635C96.8811 12.2685 96.7219 12.221 96.5129 12.221Z" fill="#0C111D"/>
<path d="M87.4326 14.3657H85.3663V9.09296H87.3614C87.8791 9.09296 88.3328 9.20459 88.7223 9.42785C89.1166 9.65111 89.4253 9.96225 89.6486 10.3613C89.8718 10.7603 89.9835 11.2211 89.9835 11.7436C89.9835 12.2566 89.8742 12.7102 89.6557 13.1045C89.442 13.4988 89.1427 13.8075 88.7579 14.0308C88.3779 14.2541 87.9361 14.3657 87.4326 14.3657ZM86.5206 9.62024V13.8527L85.9719 13.2969H87.3186C87.6226 13.2969 87.8815 13.2351 88.0953 13.1116C88.3138 12.9881 88.48 12.81 88.594 12.5772C88.708 12.3445 88.765 12.0666 88.765 11.7436C88.765 11.4111 88.7033 11.1284 88.5798 10.8957C88.461 10.6582 88.2876 10.4776 88.0596 10.3541C87.8364 10.2259 87.5656 10.1618 87.2474 10.1618H85.9719L86.5206 9.62024Z" fill="#0C111D"/>
<path d="M83.5667 14.3657H80.2178V9.09296H83.5667V10.1618H81.0515L81.3721 9.8625V11.1949H83.3173V12.2067H81.3721V13.5962L81.0515 13.2969H83.5667V14.3657Z" fill="#0C111D"/>
<path d="M75.6116 14.3657H74.4573V9.09296H76.4952C77.1365 9.09296 77.6305 9.24259 77.9772 9.54186C78.3288 9.83637 78.5045 10.2568 78.5045 10.803C78.5045 11.1451 78.4309 11.4372 78.2836 11.6795C78.1411 11.9217 77.9226 12.1188 77.6281 12.2709L78.5544 14.3657H77.2932L76.5023 12.5202H75.6116V14.3657ZM75.6116 10.119V11.5084H76.4881C76.7398 11.5084 76.9346 11.4467 77.0723 11.3232C77.2148 11.1997 77.2861 11.0263 77.2861 10.803C77.2861 10.5798 77.2172 10.4111 77.0795 10.2971C76.9464 10.1784 76.7517 10.119 76.4952 10.119H75.6116Z" fill="#0C111D"/>
<path d="M72.6577 14.3657H69.3088V9.09296H72.6577V10.1618H70.1425L70.4631 9.8625V11.1949H72.4083V12.2067H70.4631V13.5962L70.1425 13.2969H72.6577V14.3657Z" fill="#0C111D"/>
<path d="M61.9742 14.3657L60.3924 9.09296H61.5965L62.2877 11.3802C62.3352 11.5369 62.3803 11.7032 62.4231 11.879C62.4658 12.05 62.5086 12.2661 62.5513 12.5274C62.5941 12.2661 62.6368 12.05 62.6796 11.879C62.7223 11.708 62.7675 11.5417 62.815 11.3802L63.4634 9.09296H64.7531L65.373 11.3802C65.4157 11.5417 65.4585 11.7103 65.5012 11.8861C65.544 12.0618 65.5891 12.2756 65.6366 12.5274C65.6888 12.2614 65.7363 12.0452 65.7791 11.879C65.8219 11.708 65.867 11.5464 65.9145 11.3944L66.6199 9.09296H67.7956L66.1852 14.3657H65.0594L64.0975 10.9028L63.1071 14.3657H61.9742Z" fill="#0C111D"/>
<path d="M59.3908 11.7219C59.3908 12.2586 59.2815 12.7337 59.063 13.1469C58.8445 13.5555 58.5405 13.8761 58.151 14.1088C57.7614 14.3369 57.3102 14.4509 56.7972 14.4509C56.2889 14.4509 55.84 14.3369 55.4505 14.1088C55.0657 13.8761 54.7641 13.5555 54.5456 13.1469C54.3318 12.7384 54.2249 12.2658 54.2249 11.729C54.2249 11.1922 54.3342 10.7196 54.5527 10.3111C54.7712 9.89779 55.0728 9.57715 55.4576 9.34914C55.8471 9.11638 56.296 9 56.8043 9C57.3173 9 57.7662 9.11638 58.151 9.34914C58.5405 9.57715 58.8445 9.89542 59.063 10.3039C59.2815 10.7125 59.3908 11.1851 59.3908 11.7219ZM58.1723 11.7219C58.1723 11.3846 58.1177 11.0972 58.0085 10.8597C57.8992 10.6174 57.7424 10.4322 57.5382 10.3039C57.3387 10.1757 57.0964 10.1116 56.8114 10.1116C56.5264 10.1116 56.2818 10.1757 56.0775 10.3039C55.8732 10.4322 55.7165 10.6174 55.6072 10.8597C55.498 11.0972 55.4433 11.3846 55.4433 11.7219C55.4433 12.0591 55.498 12.3489 55.6072 12.5912C55.7165 12.8334 55.8732 13.0187 56.0775 13.1469C56.2818 13.2752 56.5264 13.3393 56.8114 13.3393C57.0964 13.3393 57.3387 13.2752 57.5382 13.1469C57.7424 13.0139 57.8992 12.8263 58.0085 12.584C58.1177 12.3418 58.1723 12.0544 58.1723 11.7219Z" fill="#0C111D"/>
<path d="M50.1543 9.09296V14.3657H49V9.09296H50.1543ZM51.1376 12.6129H49.8693V11.5868H50.8811C51.1613 11.5868 51.3704 11.5274 51.5081 11.4087C51.6459 11.2852 51.7147 11.0999 51.7147 10.8529C51.7147 10.6059 51.6459 10.423 51.5081 10.3043C51.3704 10.1808 51.1613 10.119 50.8811 10.119H49.8693V9.09296H51.1376C51.4986 9.09296 51.8121 9.16659 52.0781 9.31385C52.3489 9.4611 52.5579 9.66774 52.7052 9.93375C52.8572 10.195 52.9332 10.5014 52.9332 10.8529C52.9332 11.2044 52.8572 11.5132 52.7052 11.7792C52.5579 12.0405 52.3489 12.2447 52.0781 12.392C51.8121 12.5392 51.4986 12.6129 51.1376 12.6129Z" fill="#0C111D"/>
<defs>
<filter id="filter0_d_10317_59046" x="20.0869" y="19.3484" width="112.745" height="35.9123" filterUnits="userSpaceOnUse" color-interpolation-filters="sRGB">
<feFlood flood-opacity="0" result="BackgroundImageFix"/>
<feColorMatrix in="SourceAlpha" type="matrix" values="0 0 0 0 0 0 0 0 0 0 0 0 0 0 0 0 0 0 127 0" result="hardAlpha"/>
<feOffset/>
<feGaussianBlur stdDeviation="0.717391"/>
<feComposite in2="hardAlpha" operator="out"/>
<feColorMatrix type="matrix" values="0 0 0 0 0 0 0 0 0 0 0 0 0 0 0 0 0 0 0.25 0"/>
<feBlend mode="normal" in2="BackgroundImageFix" result="effect1_dropShadow_10317_59046"/>
<feBlend mode="normal" in="SourceGraphic" in2="effect1_dropShadow_10317_59046" result="shape"/>
</filter>
</defs>
</svg>
